<svg width="256" height="256" viewBox="0 0 256 256" fill="none" xmlns="http://www.w3.org/2000/svg">
    <defs>
        <linearGradient id="fossa-fav-gold-grad" x1="0%" y1="0%" x2="100%" y2="100%">
            <stop offset="0%" stop-color="#FDE047" />
            <stop offset="50%" stop-color="#F59E0B" />
            <stop offset="100%" stop-color="#EA580C" />
        </linearGradient>
        <filter id="fossa-fav-gold-shadow" x="0" y="8" width="256" height="248" filterUnits="userSpaceOnUse">
            <feDropShadow dx="0" dy="8" stdDeviation="12" flood-color="#F59E0B" flood-opacity="0.4" />
        </filter>
    </defs>

    <g filter="url(#fossa-fav-gold-shadow)">
        <rect
            x="16"
            y="16"
            width="224"
            height="224"
            rx="52"
            fill="url(#fossa-fav-gold-grad)"
        />
        <g transform="translate(16, 16) scale(7)">
            <path
                d="M10 8.5 H22 C23.1 8.5 24 9.4 24 10.5 C24 11.6 23.1 12.5 22 12.5 H14 V14.5 H20 C21.1 14.5 22 15.4 22 16.5 C22 17.6 21.1 18.5 20 18.5 H14 V23.5 C14 24.6 13.1 25.5 12 25.5 C10.9 25.5 10 24.6 10 23.5 Z"
                fill="#FFFFFF"
            />
            <circle cx="21" cy="23" r="2.2" fill="#FFFFFF" fill-opacity="0.95" />
        </g>
    </g>
</svg>
